<?xml version="1.0" standalone="no"?>
<!DOCTYPE svg PUBLIC "-//W3C//DTD SVG 20010904//EN"
 "http://www.w3.org/TR/2001/REC-SVG-20010904/DTD/svg10.dtd">
<svg version="1.0" xmlns="http://www.w3.org/2000/svg"
 width="477.000000pt" height="245.000000pt" viewBox="0 0 477.000000 245.000000"
 preserveAspectRatio="xMidYMid meet">

<g transform="translate(0.000000,245.000000) scale(0.100000,-0.100000)"
fill="#000000" stroke="none">
<path d="M380 1895 l0 -75 2005 0 2005 0 0 75 0 75 -2005 0 -2005 0 0 -75z"/>
<path d="M997 1303 c-4 -3 -7 -156 -7 -339 l0 -334 24 -6 c38 -9 66 4 66 32 0
31 12 30 46 -1 86 -79 235 -42 291 72 23 48 25 62 21 151 -3 88 -6 102 -33
142 -38 55 -79 80 -148 87 -42 4 -62 1 -94 -16 -23 -11 -45 -25 -48 -31 -17
-28 -25 12 -25 126 l0 124 -43 0 c-24 0 -47 -3 -50 -7z m293 -312 c37 -27 50
-59 50 -129 0 -101 -40 -152 -120 -152 -85 0 -130 52 -130 150 0 81 35 137 95
153 30 7 77 -2 105 -22z"/>
<path d="M1574 1296 c-3 -8 -4 -25 -2 -38 3 -21 9 -23 63 -26 32 -2 65 -8 72
-14 10 -8 13 -69 13 -259 l0 -248 -77 -3 -78 -3 -3 -34 c-2 -20 2 -37 10 -42
17 -11 379 -11 396 0 8 5 12 22 10 42 l-3 34 -77 3 -78 3 0 260 c0 339 0 339
-155 339 -65 0 -87 -3 -91 -14z"/>
<path d="M3340 971 l0 -339 30 -7 c16 -4 39 -4 50 0 18 6 20 15 20 116 0 60 4
109 9 109 4 0 52 -49 105 -109 100 -113 125 -129 180 -115 14 3 26 9 26 13 0
3 -45 56 -100 116 -55 61 -99 117 -100 126 0 8 40 58 90 111 49 52 86 98 83
102 -3 3 -28 6 -55 6 -48 0 -51 -2 -116 -72 -37 -40 -78 -84 -92 -98 l-25 -25
-3 203 -2 202 -50 0 -50 0 0 -339z"/>
<path d="M2222 1089 c-102 -51 -147 -190 -106 -328 25 -84 109 -151 190 -151
40 0 93 21 118 47 23 22 29 25 37 13 5 -8 9 -21 9 -27 0 -18 45 -27 69 -13 20
10 21 18 21 228 0 119 -4 223 -9 230 -12 20 -72 11 -85 -13 -6 -11 -12 -22
-14 -24 -1 -3 -12 5 -25 17 -50 47 -135 55 -205 21z m185 -98 c12 -9 29 -33
38 -54 30 -75 13 -163 -41 -206 -24 -19 -38 -22 -81 -19 -59 5 -88 25 -109 75
-38 90 8 212 86 226 35 6 81 -3 107 -22z"/>
<path d="M2915 1097 c-16 -8 -39 -24 -49 -36 -28 -30 -46 -27 -46 10 0 29 -1
30 -42 27 l-43 -3 -3 -232 c-2 -225 -2 -232 18 -238 11 -4 34 -4 50 0 l30 7 0
126 c0 70 5 144 11 166 20 71 80 105 153 85 58 -16 66 -43 66 -223 l0 -156 24
-6 c13 -3 35 -4 47 -2 l24 3 0 185 c0 203 -6 228 -67 273 -35 26 -130 33 -173
14z"/>
</g>
</svg>
